<svg width="19" height="20" viewBox="0 0 19 20" fill="none" xmlns="http://www.w3.org/2000/svg">
<path d="M9.04282 18.0317C9.9157 16.9284 10.6983 15.9467 11.4743 14.9591C12.745 13.3416 13.9865 11.6999 15.2919 10.1113C15.8362 9.44892 16.5097 8.89161 17.1342 8.2968C17.4023 8.04133 17.7473 7.81828 18.0705 8.1212C18.4294 8.45736 18.2034 8.82423 17.9243 9.10483C14.9203 12.1233 12.8592 15.86 10.246 19.1762C9.47587 20.1535 8.82734 20.2808 7.87457 19.4534C7.56914 19.1972 7.28285 18.9191 7.01793 18.6213C5.15931 16.4567 3.28286 14.3063 1.47621 12.0989C0.89615 11.3904 0.496739 10.5305 0.0453434 9.72263C-0.0314843 9.58492 -0.000390408 9.22206 0.0623478 9.20052C0.292698 9.12077 0.62964 9.03343 0.796588 9.14429C1.45321 9.58066 2.14334 10.0156 2.66957 10.5896C3.93975 11.9756 5.12155 13.4422 6.34561 14.8707C7.0655 15.7108 7.79974 16.5387 8.52376 17.3753C8.6818 17.5583 8.82469 17.7553 9.04282 18.0317Z" fill="black"/>
<path d="M9.04282 10.0564C9.9157 8.95321 10.6983 7.97147 11.4743 6.98388C12.745 5.36639 13.9865 3.72469 15.2919 2.13604C15.8362 1.4737 16.5097 0.91639 17.1342 0.321577C17.4023 0.0661067 17.7473 -0.156937 18.0705 0.145985C18.4294 0.482137 18.2034 0.849013 17.9243 1.12961C14.9203 4.14806 12.8592 7.88482 10.246 11.201C9.47587 12.1782 8.82734 12.3056 7.87457 11.4781C7.56914 11.222 7.28285 10.9439 7.01793 10.6461C5.15931 8.48148 3.28286 6.33111 1.47621 4.12372C0.89615 3.41513 0.496739 2.55529 0.0453434 1.74741C-0.0314843 1.6097 -0.000390408 1.24684 0.0623478 1.2253C0.292698 1.14555 0.62964 1.05821 0.796588 1.16907C1.45321 1.60544 2.14334 2.04035 2.66957 2.61443C3.93975 4.00038 5.12155 5.46701 6.34561 6.89549C7.0655 7.73553 7.79974 8.56349 8.52376 9.40008C8.6818 9.58311 8.82469 9.7801 9.04282 10.0564Z" fill="black"/>
</svg>
