<svg width="30" height="30" viewBox="0 0 30 30" fill="none" xmlns="http://www.w3.org/2000/svg">
<g clip-path="url(#clip0_764_500)">
<path fill-rule="evenodd" clip-rule="evenodd" d="M15.3504 21.6625C15.2102 21.547 15.0429 21.4694 14.8642 21.437C14.6856 21.4046 14.5016 21.4185 14.3298 21.4774C14.1581 21.5363 14.0043 21.6383 13.8832 21.7735C13.762 21.9088 13.6776 22.0728 13.6379 22.25C13.0879 23.5 15.1629 24.2875 15.6879 23.2875C16.0879 22.5 16.0379 22 15.3504 21.6625Z" fill="black"/>
<path fill-rule="evenodd" clip-rule="evenodd" d="M26.5874 5.78747C22.0499 -2.68817e-05 15.2874 0.412473 11.6874 1.33747C9.80777 1.81369 8.04345 2.66396 6.49988 3.83747C5.36475 4.68454 4.32529 5.65275 3.39988 6.72497C2.46067 7.82832 1.69367 9.06732 1.12488 10.4C-0.0591821 12.9968 -0.33312 15.917 0.347333 18.6887C1.02779 21.4604 2.62288 23.9217 4.87488 25.675C7.08119 27.4387 9.70915 28.5969 12.4996 29.0353C15.29 29.4737 18.1465 29.1772 20.7874 28.175C23.305 27.1464 25.4957 25.4526 27.1249 23.275C28.8172 21.1239 29.8116 18.507 29.9749 15.775C29.9669 12.1652 28.7771 8.65729 26.5874 5.78747ZM26.0124 22.3875C24.5186 24.322 22.5328 25.82 20.2624 26.725C17.8712 27.6194 15.2898 27.8822 12.7674 27.4881C10.245 27.094 7.86677 26.0562 5.86238 24.475C3.82901 22.9334 2.3716 20.7542 1.72345 18.2863C1.07529 15.8183 1.27387 13.2042 2.28738 10.8625C2.77904 9.64639 3.45348 8.51249 4.28738 7.49997C5.13452 6.44821 6.09442 5.4925 7.14988 4.64997C8.56876 3.53442 10.1966 2.71414 11.9374 2.23747C14.0249 1.64997 21.1124 0.337473 25.6874 6.46247C27.7025 9.13214 28.7791 12.3928 28.7499 15.7375C28.5247 18.1785 27.571 20.4954 26.0124 22.3875Z" fill="black"/>
<path fill-rule="evenodd" clip-rule="evenodd" d="M15.8751 6.68752C15.1801 6.49286 14.4477 6.47316 13.7432 6.6302C13.0388 6.78723 12.3841 7.11611 11.8376 7.58752C11.2927 8.10646 10.9068 8.76982 10.7251 9.50002C10.4823 10.5092 10.5038 11.564 10.7876 12.5625C10.8108 12.6669 10.8745 12.7579 10.9648 12.8153C11.055 12.8727 11.1644 12.892 11.2688 12.8688C11.3733 12.8456 11.4642 12.7818 11.5216 12.6916C11.5791 12.6013 11.5983 12.4919 11.5751 12.3875C11.4316 11.6654 11.4316 10.9221 11.5751 10.2C11.7044 9.53667 12.0683 8.94206 12.6001 8.52502C13.007 8.23702 13.4774 8.05142 13.9714 7.98397C14.4654 7.91651 14.9683 7.96918 15.4376 8.13752C15.9179 8.26212 16.3634 8.49465 16.7403 8.81739C17.1172 9.14014 17.4155 9.54461 17.6126 10C17.7765 10.3278 17.8524 10.6927 17.8326 11.0587C17.8129 11.4247 17.6983 11.7792 17.5001 12.0875C16.7251 13.225 15.3001 14.125 14.5251 15.35C14.1429 15.9367 13.9468 16.625 13.9626 17.325C13.9546 17.9751 14.0735 18.6205 14.3126 19.225C14.3499 19.3404 14.4311 19.4366 14.5387 19.4927C14.6462 19.5488 14.7715 19.5604 14.8876 19.525C15.0062 19.4875 15.1055 19.405 15.1639 19.2951C15.2223 19.1853 15.2353 19.0569 15.2001 18.9375C15.0419 18.4282 14.9742 17.8952 15.0001 17.3625C15.0377 16.8747 15.2109 16.4071 15.5001 16.0125C16.1545 15.2692 16.8833 14.5949 17.6751 14C18.3072 13.5066 18.8164 12.8734 19.1626 12.15C19.3421 11.7182 19.4345 11.2552 19.4345 10.7875C19.4345 10.3199 19.3421 9.85684 19.1626 9.42502C18.872 8.74003 18.4221 8.1343 17.8503 7.65817C17.2785 7.18204 16.6014 6.84927 15.8751 6.68752Z" fill="black"/>
</g>
<defs>
<clipPath id="clip0_764_500">
<rect width="30" height="30" fill="white"/>
</clipPath>
</defs>
</svg>
