<svg width="97" height="101" viewBox="0 0 97 101" fill="none" xmlns="http://www.w3.org/2000/svg">
<g filter="url(#filter0_d_269_1398)">
<ellipse cx="48.2" cy="46.7002" rx="34.5" ry="32" fill="url(#paint0_linear_269_1398)"/>
<path d="M48.2 11.2002C66.5336 11.2002 81.2 24.9598 81.2 41.7002C81.2 58.4406 66.5336 72.2002 48.2 72.2002C29.8663 72.2002 15.2 58.4406 15.2 41.7002C15.2 24.9598 29.8663 11.2002 48.2 11.2002Z" fill="url(#paint1_linear_269_1398)" stroke="url(#paint2_linear_269_1398)" stroke-width="3"/>
<path d="M54.7 20.7002L51.7 23.7002L48.2 18.7002L44.7 23.7002L41.7 20.7002V27.2002C41.7 27.598 41.858 27.9796 42.1393 28.2609C42.4206 28.5422 42.8021 28.7002 43.2 28.7002H53.2C53.5978 28.7002 53.9793 28.5422 54.2606 28.2609C54.5419 27.9796 54.7 27.598 54.7 27.2002V20.7002Z" fill="#FFD767"/>
<path d="M42.611 58.2406L41.4 55.5754L42.611 52.9103L39.9458 54.1212L37.2807 52.9103L38.4916 55.5754L37.2807 58.2406L39.9458 57.0296L42.611 58.2406Z" fill="white" fill-opacity="0.54"/>
<path d="M64.1559 55.2689L62.9449 52.6037L64.1559 49.9386L61.4907 51.1496L58.8256 49.9386L60.0365 52.6037L58.8256 55.2689L61.4907 54.0579L64.1559 55.2689Z" fill="white" fill-opacity="0.54"/>
<path d="M66.3846 36.6956L65.1737 34.0305L66.3846 31.3653L63.7195 32.5763L61.0543 31.3653L62.2653 34.0305L61.0543 36.6956L63.7195 35.4847L66.3846 36.6956Z" fill="white" fill-opacity="0.54"/>
<path d="M33.7728 45.6878L32.5501 42.997L33.7728 40.3061L31.0819 41.5288L28.391 40.3061L29.6137 42.997L28.391 45.6878L31.0819 44.4652L33.7728 45.6878Z" fill="white" fill-opacity="0.54"/>
<path d="M33.8283 27.0841C33.2964 27.6555 32.6494 28.069 31.9907 28.467C31.065 29.0236 30.0601 29.4365 29.0103 29.6914C28.398 29.8363 27.7698 29.9034 27.1407 29.8912C27.0528 29.8912 26.9653 29.9023 26.8802 29.9241C26.7096 29.9665 26.565 29.9326 26.4746 29.7859C26.4008 29.6758 26.3494 29.5522 26.3233 29.4223C26.2722 29.1088 26.2408 28.7923 26.2295 28.4748C26.2097 27.5635 26.2648 26.654 26.4504 25.7614C26.7022 24.5507 27.1759 23.4358 28.0203 22.5099C28.4622 22.0256 28.9652 21.6155 29.6034 21.4089C30.5048 21.1168 31.3884 21.221 32.2461 21.5721C33.0891 21.9171 33.7594 22.4891 34.2672 23.2431C34.8528 24.1126 35.0266 25.3504 34.262 26.4966C34.1269 26.6987 33.9733 26.8886 33.8283 27.0841ZM27.0369 29.449C27.6463 29.4546 28.452 29.3349 29.0138 29.1784C30.203 28.8441 31.3291 28.3165 32.3471 27.6168C32.9438 27.2108 33.4827 26.7495 33.8755 26.1299C34.4923 25.1577 34.3207 24.1021 33.7532 23.3756C33.4932 23.0426 33.2072 22.7362 32.8587 22.4902C32.1721 22.0057 31.4147 21.7539 30.5725 21.7862C30.104 21.7977 29.6492 21.9465 29.2646 22.2142C28.7955 22.5399 28.3953 22.9549 28.0868 23.4354C27.545 24.2761 27.1956 25.2263 27.0638 26.2179C26.9644 26.9432 26.9256 27.6754 26.9479 28.4071C26.9593 28.7521 27.0056 29.0957 27.0369 29.449Z" fill="white" fill-opacity="0.7"/>
<path fill-rule="evenodd" clip-rule="evenodd" d="M29.0138 29.1784C28.452 29.3349 27.6463 29.4546 27.0369 29.449C27.0271 29.338 27.0157 29.2279 27.0045 29.1184C26.9799 28.8796 26.9557 28.6437 26.9479 28.4071C26.9256 27.6754 26.9644 26.9432 27.0638 26.2179C27.1956 25.2263 27.545 24.2761 28.0868 23.4354C28.3953 22.9549 28.7955 22.5399 29.2646 22.2142C29.6492 21.9465 30.104 21.7977 30.5725 21.7862C31.4147 21.7539 32.1721 22.0057 32.8587 22.4902C33.2072 22.7362 33.4932 23.0426 33.7532 23.3756C34.3207 24.1021 34.4923 25.1577 33.8755 26.1299C33.4827 26.7495 32.9438 27.2108 32.3471 27.6168C31.3291 28.3165 30.203 28.8441 29.0138 29.1784Z" fill="white" fill-opacity="0.7"/>
<path d="M34.2 68.7002H64.2C68.3421 68.7002 71.7 72.0581 71.7 76.2002C71.7 80.3423 68.3421 83.7002 64.2 83.7002H34.2C30.0578 83.7002 26.7 80.3423 26.7 76.2002C26.7 72.0581 30.0578 68.7002 34.2 68.7002Z" fill="#7EDAFB" stroke="#2E90B2" stroke-width="2"/>
</g>
<defs>
<filter id="filter0_d_269_1398" x="-4.86374e-05" y="0.000195503" width="96.4" height="102.4" filterUnits="userSpaceOnUse" color-interpolation-filters="sRGB">
<feFlood flood-opacity="0" result="BackgroundImageFix"/>
<feColorMatrix in="SourceAlpha" type="matrix" values="0 0 0 0 0 0 0 0 0 0 0 0 0 0 0 0 0 0 127 0" result="hardAlpha"/>
<feOffset dy="4"/>
<feGaussianBlur stdDeviation="6.85"/>
<feComposite in2="hardAlpha" operator="out"/>
<feColorMatrix type="matrix" values="0 0 0 0 0 0 0 0 0 0 0 0 0 0 0 0 0 0 0.25 0"/>
<feBlend mode="normal" in2="BackgroundImageFix" result="effect1_dropShadow_269_1398"/>
<feBlend mode="normal" in="SourceGraphic" in2="effect1_dropShadow_269_1398" result="shape"/>
</filter>
<linearGradient id="paint0_linear_269_1398" x1="48.2" y1="14.7002" x2="48.2" y2="78.7002" gradientUnits="userSpaceOnUse">
<stop stop-color="#22A5D4"/>
<stop offset="1" stop-color="#2E89A9"/>
</linearGradient>
<linearGradient id="paint1_linear_269_1398" x1="48.2" y1="9.7002" x2="48.2" y2="73.7002" gradientUnits="userSpaceOnUse">
<stop stop-color="#84DEFE"/>
<stop offset="1" stop-color="#22A5D4"/>
</linearGradient>
<linearGradient id="paint2_linear_269_1398" x1="48.2" y1="9.7002" x2="48.2" y2="73.7002" gradientUnits="userSpaceOnUse">
<stop stop-color="#3FB1D9"/>
<stop offset="1" stop-color="#25748F"/>
</linearGradient>
</defs>
</svg>
